<?xml version="1.0" encoding="UTF-8"?>
<!DOCTYPE svg PUBLIC "-//W3C//DTD SVG 1.1//EN" "http://www.w3.org/Graphics/SVG/1.1/DTD/svg11.dtd">
<!-- Creator: CorelDRAW 2020 (64 Bit) -->
<svg xmlns="http://www.w3.org/2000/svg" xml:space="preserve" width="210mm" height="297mm" version="1.1" style="shape-rendering:geometricPrecision; text-rendering:geometricPrecision; image-rendering:optimizeQuality; fill-rule:evenodd; clip-rule:evenodd"
viewBox="0 0 21000 29700"
 xmlns:xlink="http://www.w3.org/1999/xlink"
 xmlns:xodm="http://www.corel.com/coreldraw/odm/2003">
 <defs>
  <style type="text/css">
   <![CDATA[
    .str0 {stroke:#201E1E;stroke-width:20;stroke-miterlimit:22.9256}
    .fil1 {fill:#201E1E}
    .fil0 {fill:#1DC157}
   ]]>
  </style>
 </defs>
 <g id="Camada_x0020_1">
  <metadata id="CorelCorpID_0Corel-Layer"/>
  <g id="_1829556198288">
   <ellipse class="fil0" cx="10492.87" cy="14850.53" rx="9618.62" ry="9697.28"/>
   <path class="fil1 str0" d="M10492.87 13207.79c899.9,0 1629.4,735.49 1629.4,1642.74 0,907.25 -729.5,1642.74 -1629.4,1642.74 -899.9,0 -1629.4,-735.49 -1629.4,-1642.74 0,-907.25 729.5,-1642.74 1629.4,-1642.74zm0 483.52c635.02,0 1149.79,519.02 1149.79,1159.22 0,640.2 -514.77,1159.22 -1149.79,1159.22 -635.02,0 -1149.79,-519.02 -1149.79,-1159.22 0,-640.2 514.77,-1159.22 1149.79,-1159.22z"/>
   <path class="fil1 str0" d="M10492.87 9505.52c2928.01,0 5301.64,2393.04 5301.64,5345.01 0,2951.97 -2373.63,5345.01 -5301.64,5345.01 -2928.01,0 -5301.64,-2393.04 -5301.64,-5345.01 0,-2951.97 2373.63,-5345.01 5301.64,-5345.01zm394.93 2700.15l-633.96 0 0 -1939.46c-1069.02,55.73 -2040.45,483.35 -2789.66,1156.86l1460 1292.5 -420.22 474.68 -1481.35 -1311.42c-612.3,726.13 -1004.42,1646.8 -1072.25,2657.25l1997.39 29.94 -9.52 633.88 -1987.57 -29.76c157.91,2314.08 2016.63,4156.47 4325.22,4265.68l0 -1925.4 633.96 0 0 1911.35c1036.97,-94.98 1973.49,-540.25 2692.11,-1217.81l-1386.02 -1227 420.22 -474.68 1396.13 1235.95c560.73,-697.78 922.71,-1564.49 998.77,-2512.76l-1885.83 -28.25 9.52 -633.89 1884.13 28.23c-125.95,-2282.45 -1905.64,-4119.7 -4151.07,-4314.23l0 1928.34z"/>
  </g>
 </g>
</svg>
